<svg width="1374" height="987" viewBox="0 0 1374 987" fill="none" xmlns="http://www.w3.org/2000/svg">
<path d="M0 0L158.649 7.66114C215.793 10.4206 269.019 37.5192 304.868 82.1044L403.247 204.458C456.266 270.397 534.664 310.882 619.124 315.937L804 327L824.886 331.017C922.704 349.828 1000.02 424.913 1021.69 522.138L1053.25 663.779C1060.3 695.401 1075.32 724.695 1096.87 748.879L1119.21 773.931C1147.74 805.938 1182.8 831.458 1222.03 848.769L1269 869.5L1303.78 893.042C1323.64 906.484 1339.98 924.493 1351.45 945.556L1374 987H0V0Z" fill="url(#paint0_linear_7_4)" fill-opacity="0.3"/>
<defs>
<linearGradient id="paint0_linear_7_4" x1="687" y1="0" x2="687" y2="987" gradientUnits="userSpaceOnUse">
<stop stop-color="#FFDBD1"/>
<stop offset="1" stop-color="#F5A8B2"/>
</linearGradient>
</defs>
</svg>
